HIERARCHY
ROOT hip
{
	OFFSET 0.000000 0.000000 0.000000
	CHANNELS 6 Xposition Yposition Zposition Xrotation Zrotation Yrotation 
	JOINT abdomen
	{
		OFFSET 0.000000 3.422050 0.000000
		CHANNELS 3 Xrotation Zrotation Yrotation 
		JOINT chest
		{
			OFFSET 0.000000 8.486693 -0.684411
			CHANNELS 3 Xrotation Zrotation Yrotation 
			JOINT neck
			{
				OFFSET 0.000000 10.266162 -0.273764
				CHANNELS 3 Xrotation Zrotation Yrotation 
				JOINT head
				{
					OFFSET 0.000000 3.148285 0.000000
					CHANNELS 3 Xrotation Zrotation Yrotation 
					End Site
					{
						OFFSET 0.000000 3.148289 0.000000
					}
				}
			}
			JOINT lCollar
			{
				OFFSET 3.422053 6.707223 -0.821293
				CHANNELS 3 Yrotation Zrotation Xrotation 
				JOINT lShldr
				{
					OFFSET 3.285171 0.000000 0.000000
					CHANNELS 3 Zrotation Yrotation Xrotation 
					JOINT lForeArm
					{
						OFFSET 10.129278 0.000000 0.000000
						CHANNELS 3 Yrotation Zrotation Xrotation 
						JOINT lHand
						{
							OFFSET 8.486692 0.000000 0.000000
							CHANNELS 3 Zrotation Yrotation Xrotation 
							End Site
							{
								OFFSET 4.106464 0.000000 0.000000
							}
						}
					}
				}
			}
			JOINT rCollar
			{
				OFFSET -3.558935 6.707223 -0.821293
				CHANNELS 3 Yrotation Zrotation Xrotation 
				JOINT rShldr
				{
					OFFSET -3.148289 0.000000 0.000000
					CHANNELS 3 Zrotation Yrotation Xrotation 
					JOINT rForeArm
					{
						OFFSET -10.266159 0.000000 0.000000
						CHANNELS 3 Yrotation Zrotation Xrotation 
						JOINT rHand
						{
							OFFSET -8.349810 0.000000 0.000000
							CHANNELS 3 Zrotation Yrotation Xrotation 
							End Site
							{
								OFFSET -4.106464 0.000000 0.000000
							}
						}
					}
				}
			}
		}
	}
	JOINT lThigh
	{
		OFFSET 5.338403 -1.642589 1.368821
		CHANNELS 3 Xrotation Zrotation Yrotation 
		JOINT lShin
		{
			OFFSET -2.053232 -20.121670 0.000000
			CHANNELS 3 Xrotation Zrotation Yrotation 
			JOINT lFoot
			{
				OFFSET 0.000000 -19.300380 -1.231939
				CHANNELS 3 Xrotation Yrotation Zrotation 
				End Site
				{
					OFFSET 0.000000 -2.463878 4.653993
				}
			}
		}
	}
	JOINT rThigh
	{
		OFFSET -5.338403 -1.642589 1.368821
		CHANNELS 3 Xrotation Zrotation Yrotation 
		JOINT rShin
		{
			OFFSET 2.053232 -20.121670 0.000000
			CHANNELS 3 Xrotation Zrotation Yrotation 
			JOINT rFoot
			{
				OFFSET 0.000000 -19.300380 -1.231939
				CHANNELS 3 Xrotation Yrotation Zrotation 
				End Site
				{
					OFFSET 0.000000 -2.463878 4.653993
				}
			}
		}
	}
}
MOTION
Frames: 11
Frame Time: 0.049989
-22.002388 24.554472 16.918262 -90.001877 -0.011127 0.011128 -3.491668 -0.479415 -0.696376 19.755430 -0.636630 -1.369288 -19.715971 0.000000 0.000000 -0.904324 0.000000 0.000000 -11.952672 14.896954 -32.332855 -49.130409 -62.657391 -44.824188 -111.320900 8.961136 -10.055514 -23.907658 -15.747681 -16.345816 11.806969 -15.173226 -32.420616 49.110779 53.902775 -45.540531 111.144211 -9.279498 -10.120818 15.407354 13.107703 -18.218382 -33.203262 5.864493 -8.579415 84.007111 3.857255 -0.548852 41.114727 5.134783 -15.669910 -33.519199 -9.637602 4.600186 84.006477 -3.903561 0.610764 41.410244 -4.050098 10.268311 
-22.002388 24.525036 16.922466 -90.001877 -0.011127 0.011128 -3.241804 -0.479459 -0.696355 19.755430 -0.636630 -1.369288 -19.415985 0.000000 0.000000 -1.797332 0.000000 0.000000 -11.672632 15.083375 -32.528835 -49.257702 -62.308907 -44.647991 -111.320900 8.961136 -10.055514 -23.695934 -15.555187 -16.493544 11.533646 -15.345162 -32.612732 49.223946 53.807007 -45.079273 111.144211 -9.279498 -10.120818 15.214815 12.908015 -18.352140 -33.342529 6.345717 -8.074526 84.007111 3.857255 -0.548852 40.907166 5.007895 -14.950714 -33.617245 -9.919522 4.314906 84.006477 -3.903561 0.610764 41.227531 -3.973003 9.851207 
-22.002388 24.495600 16.926672 -90.001877 -0.011127 0.011128 -2.991921 -0.479502 -0.696333 19.755430 -0.636630 -1.369288 -19.115967 0.000000 0.000000 -2.691158 0.000000 0.000000 -11.391651 15.268895 -32.725948 -49.381275 -61.960190 -44.475433 -111.320900 8.961136 -10.055514 -23.484896 -15.362141 -16.640400 11.259464 -15.516236 -32.805893 49.335587 53.710732 -44.619350 111.144211 -9.279498 -10.120818 15.022883 12.707870 -18.485113 -33.477757 6.828434 -7.570028 84.007111 3.857255 -0.548852 40.701134 4.878339 -14.231671 -33.713982 -10.201983 4.029809 84.006477 -3.903561 0.610764 41.045349 -3.894564 9.434291 
-22.002388 24.466164 16.930878 -90.001877 -0.011127 0.011128 -2.742022 -0.479545 -0.696312 19.755430 -0.636630 -1.369288 -18.815918 0.000000 0.000000 -3.585694 0.000000 0.000000 -11.109725 15.453502 -32.924206 -49.501263 -61.611259 -44.306377 -111.320900 8.961136 -10.055514 -23.274549 -15.168563 -16.786400 10.984428 -15.686440 -33.000092 49.445683 53.613907 -44.160721 111.144211 -9.279498 -10.120818 14.831567 12.507276 -18.617306 -33.608891 7.312562 -7.065888 84.007111 3.857255 -0.548852 40.496674 4.746147 -13.512846 -33.809372 -10.484961 3.744888 84.006477 -3.903561 0.610764 40.863724 -3.814788 9.017582 
-22.002388 24.436726 16.935083 -90.001877 -0.011127 0.011128 -2.492109 -0.479589 -0.696291 19.755430 -0.636630 -1.369288 -18.515848 0.000000 0.000000 -4.480832 0.000000 0.000000 -10.826855 15.637178 -33.123596 -49.617805 -61.262127 -44.140697 -111.320900 8.961136 -10.055514 -23.064894 -14.974456 -16.931547 10.708534 -15.855752 -33.195309 49.554241 53.516548 -43.703381 111.144211 -9.279498 -10.120818 14.640854 12.306234 -18.748720 -33.735916 7.798028 -6.562082 84.007111 3.857255 -0.548852 40.293842 4.611346 -12.794306 -33.903450 -10.768445 3.460142 84.006477 -3.903561 0.610764 40.682678 -3.733684 8.601098 
-22.002388 24.407290 16.939289 -90.001877 -0.011127 0.011128 -2.242184 -0.479633 -0.696271 19.755430 -0.636630 -1.369288 -18.215755 0.000000 0.000000 -5.376461 0.000000 0.000000 -10.543046 15.819925 -33.324135 -49.730961 -60.912762 -43.978264 -111.320900 8.961135 -10.055513 -22.855911 -14.779820 -17.075832 10.431790 -16.024166 -33.391541 49.661232 53.418644 -43.247334 111.144211 -9.279498 -10.120818 14.450751 12.104761 -18.879366 -33.858826 8.284759 -6.058581 84.007111 3.857255 -0.548852 40.092678 4.473970 -12.076108 -33.996189 -11.052421 3.175563 84.006477 -3.903561 0.610764 40.502216 -3.651258 8.184854 
-22.002388 24.377853 16.943493 -90.001877 -0.011127 0.011128 -1.992249 -0.479676 -0.696250 19.755430 -0.636630 -1.369288 -17.915649 0.000000 0.000000 -6.272473 0.000000 0.000000 -10.258296 16.001722 -33.525799 -49.840916 -60.563267 -43.819027 -111.320915 8.961137 -10.055514 -22.647619 -14.584672 -17.219263 10.154197 -16.191685 -33.588814 49.766685 53.320240 -42.792610 111.144211 -9.279498 -10.120818 14.261247 11.902851 -19.009230 -33.977581 8.772674 -5.555354 84.007111 3.857255 -0.548852 39.893242 4.334051 -11.358326 -34.087582 -11.336873 2.891145 84.006477 -3.903561 0.610764 40.322353 -3.567518 7.768865 
-22.002388 24.348417 16.947699 -90.001877 -0.011127 0.011128 -1.742308 -0.479720 -0.696230 19.755430 -0.636630 -1.369288 -17.615524 0.000000 0.000000 -7.168764 0.000000 0.000000 -9.972608 16.182558 -33.728600 -49.947731 -60.213577 -43.662796 -111.320900 8.961136 -10.055514 -22.440004 -14.389013 -17.361843 9.875754 -16.358284 -33.787109 49.870609 53.221352 -42.339222 111.144211 -9.279498 -10.120818 14.072343 11.700517 -19.138321 -34.092190 9.261701 -5.052372 84.007111 3.857255 -0.548852 39.695572 4.191623 -10.641013 -34.177647 -11.621788 2.606886 84.006477 -3.903561 0.610764 40.143101 -3.482468 7.353144 
-22.002388 24.318981 16.951904 -90.001877 -0.011127 0.011128 -1.492361 -0.479764 -0.696210 19.755430 -0.636630 -1.369288 -17.315392 0.000000 0.000000 -8.065213 0.000000 0.000000 -9.685982 16.362421 -33.932522 -50.051544 -59.863754 -43.509529 -111.320900 8.961136 -10.055514 -22.233067 -14.192849 -17.503563 9.596464 -16.523958 -33.986408 49.972969 53.121948 -41.887138 111.144211 -9.279498 -10.120818 13.884035 11.497759 -19.266638 -34.202606 9.751760 -4.549603 84.007111 3.857255 -0.548852 39.499718 4.046721 -9.924238 -34.266350 -11.907147 2.322778 84.006477 -3.903561 0.610764 39.964497 -3.396122 6.937714 
-22.002388 24.289545 16.956108 -90.001877 -0.011127 0.011128 -1.242412 -0.479808 -0.696190 19.755430 -0.636630 -1.369288 -17.015263 0.000000 0.000000 -8.961720 0.000000 0.000000 -9.398424 16.541307 -34.137585 -50.152428 -59.513767 -43.359081 -111.320900 8.961136 -10.055514 -22.026810 -13.996190 -17.644438 9.316335 -16.688702 -34.186729 50.073799 53.022068 -41.436398 111.144211 -9.279498 -10.120818 13.696325 11.294591 -19.394190 -34.308823 10.242775 -4.047015 84.007111 3.857255 -0.548852 39.305721 3.899381 -9.208060 -34.353699 -12.192936 2.038815 84.006477 -3.903561 0.610764 39.786526 -3.308483 6.522583 
-22.002388 24.260109 16.960314 -90.001877 -0.011127 0.011128 -0.992463 -0.479852 -0.696170 19.755430 -0.636630 -1.369288 -16.715134 0.000000 0.000000 -9.858172 0.000000 0.000000 -9.109935 16.719200 -34.343758 -50.250458 -59.163647 -43.211372 -111.320900 8.961136 -10.055514 -21.821220 -13.799040 -17.784458 9.035365 -16.852499 -34.388058 50.173100 52.921726 -40.987000 111.144211 -9.279498 -10.120818 13.509211 11.091016 -19.520971 -34.410812 10.734671 -3.544576 84.007111 3.857255 -0.548852 39.113625 3.749642 -8.492540 -34.439690 -12.479142 1.754993 84.006477 -3.903561 0.610764 39.609203 -3.219560 6.107769 
